# xmcd
#
# Track frame offsets:
#	150
#	13669
#	29964
#	44632
#	60922
#	76627
#	95858
#	108128
#	121080
#	136854
#	150568
#	163450
#	177872
#	195412
#
# Disc length: 2837 seconds
#
# Revision: 0
# Processed by: cddbd v1.5.2PL0 Copyright (c) Steve Scherf et al.
# Submitted via: audiograbber 1.83.01
#
DISCID=b10b130e
DTITLE=01 - Mr Music Country 2010-08
DYEAR=2010
DGENRE=Country
TTITLE0=Kurt Wooldridge - Right out of the blue
TTITLE1=Gary P. Nunn - A two step away
TTITLE2=T. Jae Christian - No one loves her anymore
TTITLE3=Kacey Jones - I wanna be up front like Dolly
TTITLE4=Ulf M. Andersson - Adalida
TTITLE5=Dan Tyler - How about you
TTITLE6=Highway 40 med Camilla Westerlund - If this is love
TTITLE7=Shane Worley - Every Waylon needs a Jessie
TTITLE8=Evan Westerlund - Top down
TTITLE9=Ellen Jewell - Another man loved me last night
TTITLE10=Randy Archer - Time to get my country on
TTITLE11=Robin and Linda Williams - That's the way love goes
TTITLE12=Chip Taylor - Dance with Jesus
TTITLE13=Charlie Daniels - My beautiful America (Recitation)
EXTD=
EXTT0=
EXTT1=
EXTT2=
EXTT3=
EXTT4=
EXTT5=
EXTT6=
EXTT7=
EXTT8=
EXTT9=
EXTT10=
EXTT11=
EXTT12=
EXTT13=
PLAYORDER=
